# xmcd CD database file
#
# Track frame offsets:
#	182
#	18220
#	41640
#
# Disc length: 780 seconds
#
# Revision: 0
# Processed by: cddbd v1.5.1PL2 Copyright (c) Steve Scherf et al.
# Submitted via: CDex 1.51
#
DISCID=19030a03
DTITLE=TLC - Dear Lie
DYEAR=1999
DGENRE=R&B
TTITLE0=Dear Lie (Radio Edit)
TTITLE1=Dear Lie (Album Version)
TTITLE2=Sleigh Ride (Album Version)
EXTD=YEAR: 1999
EXTT0=
EXTT1=
EXTT2=
PLAYORDER=
